# xmcd
#
# Track frame offsets:
#	187
#	6500
#	13730
#	19150
#	26012
#	30600
#	48177
#	55227
#	64027
#	71792
#	75730
#	88220
#	106140
#	110755
#	117227
#	122102
#	128172
#	143362
#	151082
#	155857
#	159710
#	164535
#	168165
#
# Disc length: 2328 seconds
#
# Revision: 1
# Processed by: cddbd v1.5.1PL0 Copyright (c) Steve Scherf et al.
# Submitted via: CDex 1.50Beta5
#
DISCID=34091617
DTITLE=大谷和夫 - ときめきトゥナイト
DYEAR=1900
DGENRE=Anime
TTITLE0=ときめきトゥナイト(テレビ・ヴァージョン)
TTITLE1=魔界のメロディー
TTITLE2=悲しき星空
TTITLE3=ザ・ファニー・スパイ
TTITLE4=ドラキュラの叫び
TTITLE5=Super Love Lotion
TTITLE6=今晩(トゥナイト)・トゥナイト・Tonight
TTITLE7=恋はエクセレント
TTITLE8=マイ・フェア・ギャル
TTITLE9=レイン・ドロップス
TTITLE10=フワフワ・ランデブー(集英社「りぼん」募集当選歌)
TTITLE11=潮風のバルカローラ
TTITLE12=ツイスト&キッス
TTITLE13=ロスト・ラブ・ノクターン(失恋夜想曲)
TTITLE14=ときめきウォーキング
TTITLE15=マジカル・ミステリー・ゾーン
TTITLE16=ときめきトゥナイト
TTITLE17=月影の妖精
TTITLE18=トライアングル・レース
TTITLE19=ウルフ・ウーマン・ロック
TTITLE20=るんるん・ストーリー
TTITLE21=ときめきララバイ
TTITLE22=Super Love Lotion(テレビ・ヴァージョン)
EXTD=
EXTT0=
EXTT1=
EXTT2=
EXTT3=
EXTT4=
EXTT5=
EXTT6=
EXTT7=
EXTT8=
EXTT9=
EXTT10=
EXTT11=
EXTT12=
EXTT13=
EXTT14=
EXTT15=
EXTT16=
EXTT17=
EXTT18=
EXTT19=
EXTT20=
EXTT21=
EXTT22=
PLAYORDER=
